<?xml version="1.0" standalone="no"?>
<!DOCTYPE svg PUBLIC "-//W3C//DTD SVG 1.1//EN" "http://www.w3.org/Graphics/SVG/1.1/DTD/svg11.dtd" >
<svg xmlns="http://www.w3.org/2000/svg" xmlns:xlink="http://www.w3.org/1999/xlink" version="1.1">
<metadata>
Created by FontForge 20161013 at Fri Jan  1 02:30:17 1904
 By ,,,
2000-2004 (c) Futaba. All rights reserved.
</metadata>
<defs>
<font id="Baby-blocks" horiz-adv-x="512" >
  <font-face 
    font-family="Baby blocks"
    font-weight="400"
    font-stretch="normal"
    units-per-em="1024"
    panose-1="2 11 6 0 0 0 0 0 0 0"
    ascent="768"
    descent="-256"
    x-height="384"
    cap-height="768"
    bbox="0 -256 1088 768"
    underline-thickness="48"
    underline-position="-168"
    unicode-range="U+0020-2219"
  />
<missing-glyph 
d="M206 400v100h100v-100h-100z" />
    <glyph glyph-name=".notdef" 
d="M206 400v100h100v-100h-100z" />
    <glyph glyph-name="glyph1" horiz-adv-x="0" 
 />
    <glyph glyph-name="nonmarkingreturn" horiz-adv-x="341" 
 />
    <glyph glyph-name="space" unicode=" " horiz-adv-x="256" 
 />
    <glyph glyph-name="exclam" unicode="!" horiz-adv-x="1152" 
d="M446 -64v61h64v-61h-64zM446 63v319h64v-319h-64zM64 -256v832h64v64h64v64h64v64h832v-832h-64v-64h-64v-64h-64v-64h-832zM832 -192v704h-704v-704h704zM960 -128v64h64v704h-64v-64h-64v-704h64v0zM896 576v64h64v64h-704v-64h-64v-64h704v0z" />
    <glyph glyph-name="quotedbl" unicode="&#x22;" horiz-adv-x="320" 
d="M64 448v128h64v-128h-64zM192 448v128h64v-128h-64z" />
    <glyph glyph-name="numbersign" unicode="#" 
d="M64 576h64v-64h64v64h64v-64h64v-64h-64v-64h64v-64h-64v-64h-64v64h-64v-64h-64v64h-64v64h64v64h-64v64h64v64zM128 384h64v64h-64v-64z" />
    <glyph glyph-name="dollar" unicode="$" 
 />
    <glyph glyph-name="percent" unicode="%" 
 />
    <glyph glyph-name="ampersand" unicode="&#x26;" 
 />
    <glyph glyph-name="quotesingle" unicode="'" horiz-adv-x="192" 
d="M64 448v128h64v-128h-64z" />
    <glyph glyph-name="parenleft" unicode="(" 
 />
    <glyph glyph-name="parenright" unicode=")" 
 />
    <glyph glyph-name="asterisk" unicode="*" 
 />
    <glyph glyph-name="plus" unicode="+" horiz-adv-x="448" 
d="M64 256v64h128v128h64v-128h128v-64h-128v-128h-64v128h-128z" />
    <glyph glyph-name="comma" unicode="," 
d="M64 0v128h128v-192h-64v64h-64z" />
    <glyph glyph-name="hyphen" unicode="-" horiz-adv-x="384" 
d="M64 256v64h256v-64h-256z" />
    <glyph glyph-name="period" unicode="." horiz-adv-x="256" 
d="M64 0v128h128v-128h-128z" />
    <glyph glyph-name="slash" unicode="/" 
 />
    <glyph glyph-name="zero" unicode="0" horiz-adv-x="1152" 
d="M384 -64v64h-64v320h64v64h192v-64h64v-320h-64v-64h-192zM576 64h-64v64h-64v64h-64v-192h192v64zM576 128v192h-192v-64h64v-64h64v-64h64zM64 -256v832h64v64h64v64h64v64h832v-832h-64v-64h-64v-64h-64v-64h-832zM832 -192v704h-704v-704h704zM960 -128v64h64v704
h-64v-64h-64v-704h64v0zM896 576v64h64v64h-704v-64h-64v-64h704v0z" />
    <glyph glyph-name="one" unicode="1" horiz-adv-x="1152" 
d="M320 -64v64h128v256h-64v-64h-64v64h64v64h64v64h64v-384h128v-64h-320zM64 -256v832h64v64h64v64h64v64h832v-832h-64v-64h-64v-64h-64v-64h-832zM832 -192v704h-704v-704h704zM960 -128v64h64v704h-64v-64h-64v-704h64v0zM896 576v64h64v64h-704v-64h-64v-64h704v0z
" />
    <glyph glyph-name="two" unicode="2" horiz-adv-x="1152" 
d="M320 -64v128h64v64h64v64h128v128h-192v-128h-64v128h64v64h192v-64h64v-128h-64v-64h-128v-64h-64v-64h256v-64h-320zM64 -256v832h64v64h64v64h64v64h832v-832h-64v-64h-64v-64h-64v-64h-832zM832 -192v704h-704v-704h704zM960 -128v64h64v704h-64v-64h-64v-704h64v0z
M896 576v64h64v64h-704v-64h-64v-64h704v0z" />
    <glyph glyph-name="three" unicode="3" horiz-adv-x="1152" 
d="M384 -64v64h-64v64h64v-64h192v128h-128v64h128v128h-192v-128h-64v128h64v64h192v-64h64v-128h-64v-64h64v-128h-64v-64h-192zM64 -256v832h64v64h64v64h64v64h832v-832h-64v-64h-64v-64h-64v-64h-832zM832 -192v704h-704v-704h704zM960 -128v64h64v704h-64v-64h-64
v-704h64v0zM896 576v64h64v64h-704v-64h-64v-64h704v0z" />
    <glyph glyph-name="four" unicode="4" horiz-adv-x="1152" 
d="M512 -64v128h-192v128h64v128h64v64h128v-256h64v-64h-64v-128h-64zM512 128v192h-64v-128h-64v-64h128zM64 -256v832h64v64h64v64h64v64h832v-832h-64v-64h-64v-64h-64v-64h-832zM832 -192v704h-704v-704h704zM960 -128v64h64v704h-64v-64h-64v-704h64v0zM896 576v64h64
v64h-704v-64h-64v-64h704v0z" />
    <glyph glyph-name="five" unicode="5" horiz-adv-x="1152" 
d="M384 -64v64h-64v64h64v-64h192v128h-256v256h320v-64h-256v-128h192v-64h64v-128h-64v-64h-192zM64 -256v832h64v64h64v64h64v64h832v-832h-64v-64h-64v-64h-64v-64h-832zM832 -192v704h-704v-704h704zM960 -128v64h64v704h-64v-64h-64v-704h64v0zM896 576v64h64v64h-704
v-64h-64v-64h704v0z" />
    <glyph glyph-name="six" unicode="6" horiz-adv-x="1152" 
d="M384 -64v64h-64v320h64v64h192v-64h64v-64h-64v64h-192v-128h192v-64h64v-128h-64v-64h-192zM576 0v128h-192v-128h192zM64 -256v832h64v64h64v64h64v64h832v-832h-64v-64h-64v-64h-64v-64h-832zM832 -192v704h-704v-704h704zM960 -128v64h64v704h-64v-64h-64v-704h64v0z
M896 576v64h64v64h-704v-64h-64v-64h704v0z" />
    <glyph glyph-name="seven" unicode="7" horiz-adv-x="1152" 
d="M448 -64v192h64v64h64v128h-192v-128h-64v192h320v-192h-64v-64h-64v-192h-64zM64 -256v832h64v64h64v64h64v64h832v-832h-64v-64h-64v-64h-64v-64h-832zM832 -192v704h-704v-704h704zM960 -128v64h64v704h-64v-64h-64v-704h64v0zM896 576v64h64v64h-704v-64h-64v-64h704
v0z" />
    <glyph glyph-name="eight" unicode="8" horiz-adv-x="1152" 
d="M384 -64v64h-64v128h64v64h-64v128h64v64h192v-64h64l-3 -128h-61v-64h64v-128h-64v-64h-192zM576 0v128h-192v-128h192zM576 192v128h-192v-128h192zM64 -256v832h64v64h64v64h64v64h832v-832h-64v-64h-64v-64h-64v-64h-832zM832 -192v704h-704v-704h704zM960 -128v64
h64v704h-64v-64h-64v-704h64v0zM896 576v64h64v64h-704v-64h-64v-64h704v0z" />
    <glyph glyph-name="nine" unicode="9" horiz-adv-x="1152" 
d="M384 -64v64h-64v64h64v-64h192v128h-192v64h-64v128h64v64h192v-64h64v-320h-64v-64h-192zM576 192v128h-192v-128h192zM64 -256v832h64v64h64v64h64v64h832v-832h-64v-64h-64v-64h-64v-64h-832zM832 -192v704h-704v-704h704zM960 -128v64h64v704h-64v-64h-64v-704h64v0z
M896 576v64h64v64h-704v-64h-64v-64h704v0z" />
    <glyph glyph-name="colon" unicode=":" 
 />
    <glyph glyph-name="semicolon" unicode=";" 
 />
    <glyph glyph-name="less" unicode="&#x3c;" 
 />
    <glyph glyph-name="equal" unicode="=" 
 />
    <glyph glyph-name="greater" unicode="&#x3e;" 
 />
    <glyph glyph-name="question" unicode="?" horiz-adv-x="1152" 
d="M448 -64v64h64v-64h-64zM448 64v128h64v64h64v64h-192v-128h-64v128h64v64h192v-64h64v-64h-64v-64h-64v-128h-64zM64 -256v832h64v64h64v64h64v64h832v-832h-64v-64h-64v-64h-64v-64h-832zM832 -192v704h-704v-704h704zM960 -128v64h64v704h-64v-64h-64v-704h64v0z
M896 576v64h64v64h-704v-64h-64v-64h704v0z" />
    <glyph glyph-name="at" unicode="@" horiz-adv-x="1152" 
d="M320 0v320h64v64h192v-64h64v-256h-64v128h-64v-64h-64v128h128v64h-192v-320h192v-64h-192v64h-64zM64 -256v832h64v64h64v64h64v64h832v-832h-64v-64h-64v-64h-64v-64h-832zM832 -192v704h-704v-704h704zM960 -64h64v704h-64v-64h-64v-704h64v64zM896 640h64v64h-704
v-64h-64v-64h704v64z" />
    <glyph glyph-name="A" unicode="A" horiz-adv-x="1152" 
d="M64 -256v832h64v64h64v64h64v64h832v-832h-64v-64h-64v-64h-64v-64h-832zM832 -192v704h-704v-704h704zM960 -128v64h64v704h-64v-64h-64v-704h64v0zM896 576v64h64v64h-704v-64h-64v-64h704v0zM320 -64v384h64v64h192v-64h64v-384h-64v192h-192v-192h-64zM576 192v128
h-192v-128h192z" />
    <glyph glyph-name="B" unicode="B" horiz-adv-x="1152" 
d="M320 -64v448h256v-64h64v-128h-64v-64h64v-128h-64v-64h-256zM576 0v128h-192v-128h192zM576 192v128h-192v-128h192zM64 -256v832h64v64h64v64h64v64h832v-832h-64v-64h-64v-64h-64v-64h-832zM832 -192v704h-704v-704h704zM960 -128v64h64v704h-64v-64h-64v-704h64v0z
M896 576v64h64v64h-704v-64h-64v-64h704v0z" />
    <glyph glyph-name="C" unicode="C" horiz-adv-x="1152" 
d="M384 -64v64h-64v320h64v64h192v-64h64v-64h-64v64h-192v-320h192v64h64v-64h-64v-64h-192zM64 -256v832h64v64h64v64h64v64h832v-832h-64v-64h-64v-64h-64v-64h-832zM832 -192v704h-704v-704h704zM960 -128v64h64v704h-64v-64h-64v-704h64v0zM896 576v64h64v64h-704v-64
h-64v-64h704v0z" />
    <glyph glyph-name="D" unicode="D" horiz-adv-x="1152" 
d="M320 -64v448h256v-64h64v-320h-64v-64h-256zM576 0v320h-192v-320h192zM64 -256v832h64v64h64v64h64v64h832v-832h-64v-64h-64v-64h-64v-64h-832zM832 -192v704h-704v-704h704zM960 -128v64h64v704h-64v-64h-64v-704h64v0zM896 576v64h64v64h-704v-64h-64v-64h704v0z" />
    <glyph glyph-name="E" unicode="E" horiz-adv-x="1152" 
d="M320 -64v448h320v-64h-256v-128h256v-64h-256v-128h256v-64h-320zM64 -256v832h64v64h64v64h64v64h832v-832h-64v-64h-64v-64h-64v-64h-832zM832 -192v704h-704v-704h704zM960 -128v64h64v704h-64v-64h-64v-704h64v0zM896 576v64h64v64h-704v-64h-64v-64h704v0z" />
    <glyph glyph-name="F" unicode="F" horiz-adv-x="1152" 
d="M320 -64v448h320v-64h-256v-128h256v-64h-256v-192h-64zM64 -256v832h64v64h64v64h64v64h832v-832h-64v-64h-64v-64h-64v-64h-832zM832 -192v704h-704v-704h704zM960 -128v64h64v704h-64v-64h-64v-704h64v0zM896 576v64h64v64h-704v-64h-64v-64h704v0z" />
    <glyph glyph-name="G" unicode="G" horiz-adv-x="1152" 
d="M384 -64v64h-64v320h64v64h192v-64h64v-64h-64v64h-192v-320h192v128h-64v64h128v-192h-64v-64h-192zM64 -256v832h64v64h64v64h64v64h832v-832h-64v-64h-64v-64h-64v-64h-832zM832 -192v704h-704v-704h704zM960 -128v64h64v704h-64v-64h-64v-704h64v0zM896 576v64h64v64
h-704v-64h-64v-64h704v0z" />
    <glyph glyph-name="H" unicode="H" horiz-adv-x="1152" 
d="M320 -64v448h64v-192h192v192h64v-448h-64v193l-192 -1v-192h-64zM64 -256v832h64v64h64v64h64v64h832v-832h-64v-64h-64v-64h-64v-64h-832zM832 -192v704h-704v-704h704zM960 -128v64h64v704h-64v-64h-64v-704h64v0zM896 576v64h64v64h-704v-64h-64v-64h704v0z" />
    <glyph glyph-name="I" unicode="I" horiz-adv-x="1152" 
d="M320 -64v64h128v320l-128 -1v65h320v-64h-128v-320h128v-64h-320zM64 -256v832h64v64h64v64h64v64h832v-832h-64v-64h-64v-64h-64v-64h-832zM832 -192v704h-704v-704h704zM960 -128v64h64v704h-64v-64h-64v-704h64v0zM896 576v64h64v64h-704v-64h-64v-64h704v0z" />
    <glyph glyph-name="J" unicode="J" horiz-adv-x="1152" 
d="M384 -64v64h-64v64h64v-64h128v320l-192 -1v65h320v-64h-64v-320h-64v-64h-128zM64 -256v832h64v64h64v64h64v64h832v-832h-64v-64h-64v-64h-64v-64h-832zM832 -192v704h-704v-704h704zM960 -128v64h64v704h-64v-64h-64v-704h64v0zM896 576v64h64v64h-704v-64h-64v-64
h704v0z" />
    <glyph glyph-name="K" unicode="K" horiz-adv-x="1152" 
d="M320 -64v448h64v-192h64v64h64v64h64v64h64v-64h-64v-64h-64v-64h-64v-64h64v-64h64v-64h64v-64h-64v64h-64v64h-64v64h-64v-192h-64zM64 -256v832h64v64h64v64h64v64h832v-832h-64v-64h-64v-64h-64v-64h-832zM832 -192v704h-704v-704h704zM960 -128v64h64v704h-64v-64
h-64v-704h64v0zM896 576v64h64v64h-704v-64h-64v-64h704v0z" />
    <glyph glyph-name="L" unicode="L" horiz-adv-x="1152" 
d="M320 -64v448h64v-384h256v-64h-320zM64 -256v832h64v64h64v64h64v64h832v-832h-64v-64h-64v-64h-64v-64h-832zM832 -192v704h-704v-704h704zM960 -128v64h64v704h-64v-64h-64v-704h64v0zM896 576v64h64v64h-704v-64h-64v-64h704v0z" />
    <glyph glyph-name="M" unicode="M" horiz-adv-x="1152" 
d="M320 -64v448h128v-64h64v64h128v-448h-64v384h-64v-384h-64v384h-64v-384h-64zM64 -256v832h64v64h64v64h64v64h832v-832h-64v-64h-64v-64h-64v-64h-832zM832 -192v704h-704v-704h704zM960 -128v64h64v704h-64v-64h-64v-704h64v0zM896 576v64h64v64h-704v-64h-64v-64h704
v0z" />
    <glyph glyph-name="N" unicode="N" horiz-adv-x="1152" 
d="M320 -64v448h128v-64h64v-320h64v384h64v-448h-64h-64v64h-64v320h-64v-384h-64zM64 -256v832h64v64h64v64h64v64h832v-832h-64v-64h-64v-64h-64v-64h-832zM832 -192v704h-704v-704h704zM960 -128v64h64v704h-64v-64h-64v-704h64v0zM896 576v64h64v64h-704v-64h-64v-64
h704v0z" />
    <glyph glyph-name="O" unicode="O" horiz-adv-x="1152" 
d="M384 -64v64h-64v320h64v64h192v-64h64v-320h-64v-64h-192zM576 320h-192v-320h192v320zM64 -256v832h64v64h64v64h64v64h832v-832h-64v-64h-64v-64h-64v-64h-832zM832 -192v704h-704v-704h704zM960 -128v64h64v704h-64v-64h-64v-704h64v0zM896 576v64h64v64h-704v-64h-64
v-64h704v0z" />
    <glyph glyph-name="P" unicode="P" horiz-adv-x="1152" 
d="M320 -64v448h256v-64h64v-128h-64v-64h-192v-192h-64zM576 320h-192v-128h192v128zM64 -256v832h64v64h64v64h64v64h832v-832h-64v-64h-64v-64h-64v-64h-832zM832 -192v704h-704v-704h704zM960 -128v64h64v704h-64v-64h-64v-704h64v0zM896 576v64h64v64h-704v-64h-64v-64
h704v0z" />
    <glyph glyph-name="Q" unicode="Q" horiz-adv-x="1152" 
d="M448 -128v64h-64v64h-64v320h64v64h192v-64h64v-320h-64v-64h-64v-64h-64zM448 0v64h64v-64h64v320h-192v-320h64zM64 -256v832h64v64h64v64h64v64h832v-832h-64v-64h-64v-64h-64v-64h-832zM832 -192v704h-704v-704h704zM960 -128v64h64v704h-64v-64h-64v-704h64v0z
M896 576v64h64v64h-704v-64h-64v-64h704v0z" />
    <glyph glyph-name="R" unicode="R" horiz-adv-x="1152" 
d="M320 -64v448h256v-64h64v-128h-64v-64h64v-192h-64v192h-192v-192h-64zM576 192v128h-192v-128h192zM64 -256v832h64v64h64v64h64v64h832v-832h-64v-64h-64v-64h-64v-64h-832zM832 -192v704h-704v-704h704zM960 -128v64h64v704h-64v-64h-64v-704h64v0zM896 576v64h64v64
h-704v-64h-64v-64h704v0z" />
    <glyph glyph-name="S" unicode="S" horiz-adv-x="1152" 
d="M384 -64v64h-64v64h64v-64h192v128h64v-128h-64v-64h-192zM64 -256v832h64v64h64v64h64v64h832v-832h-64v-64h-64v-64h-64v-64h-832zM832 -192v704h-704v-704h704zM320 192v128h64v64h192v-64h64v-64h-64v64h-192v-128h-64zM960 -64h64v704h-64v-64h-64v-704h64v64z
M896 640h64v64h-704v-64h-64v-64h704v64zM384 128v64h192v-64h-192z" />
    <glyph glyph-name="T" unicode="T" horiz-adv-x="1152" 
d="M448 -64v384l-128 -1v65h320v-64h-128v-384h-64zM64 -256v832h64v64h64v64h64v64h832v-832h-64v-64h-64v-64h-64v-64h-832zM832 -192v704h-704v-704h704zM960 -128v64h64v704h-64v-64h-64v-704h64v0zM896 576v64h64v64h-704v-64h-64v-64h704v0z" />
    <glyph glyph-name="U" unicode="U" horiz-adv-x="1152" 
d="M384 -64v64h-64v384h64v-384h192v384h64v-384h-64v-64h-192zM64 -256v832h64v64h64v64h64v64h832v-832h-64v-64h-64v-64h-64v-64h-832zM832 -192v704h-704v-704h704zM960 -128v64h64v704h-64v-64h-64v-704h64v0zM896 576v64h64v64h-704v-64h-64v-64h704v0z" />
    <glyph glyph-name="V" unicode="V" horiz-adv-x="1152" 
d="M448 -64v128h-64v128h-64v192h64v-192h64v-128h64v128h64v192h64v-192h-64v-128h-64v-128h-64zM64 -256v832h64v64h64v64h64v64h832v-832h-64v-64h-64v-64h-64v-64h-832zM832 -192v704h-704v-704h704zM960 -128v64h64v704h-64v-64h-64v-704h64v0zM896 576v64h64v64h-704
v-64h-64v-64h704v0z" />
    <glyph glyph-name="W" unicode="W" horiz-adv-x="1152" 
d="M320 -64v448h64v-384h64v384h64v-384h64v384h64v-448h-128v64h-64v-64h-128zM64 -256v832h64v64h64v64h64v64h832v-832h-64v-64h-64v-64h-64v-64h-832zM832 -192v704h-704v-704h704zM960 -128v64h64v704h-64v-64h-64v-704h64v0zM896 576v64h64v64h-704v-64h-64v-64h704v0
z" />
    <glyph glyph-name="X" unicode="X" horiz-adv-x="1152" 
d="M320 -64v64h64v64h64v192h-64v64h-64v64h64v-64h64v-64h64v64h64v64h64v-64h-64v-64h-64v-192h64v-64h64v-64h-64v64h-64v64h-64v-64h-64v-64h-64zM64 -256v832h64v64h64v64h64v64h832v-832h-64v-64h-64v-64h-64v-64h-832zM832 -192v704h-704v-704h704zM960 -128v64h64
v704h-64v-64h-64v-704h64v0zM896 576v64h64v64h-704v-64h-64v-64h704v0z" />
    <glyph glyph-name="Y" unicode="Y" horiz-adv-x="1152" 
d="M448 -64v192h-64v64h-64v192h64v-192h192v192h64v-192h-64v-64h-64v-192h-64zM64 -256v832h64v64h64v64h64v64h832v-832h-64v-64h-64v-64h-64v-64h-832zM832 -192v704h-704v-704h704zM960 -128v64h64v704h-64v-64h-64v-704h64v0zM896 576v64h64v64h-704v-64h-64v-64h704
v0z" />
    <glyph glyph-name="Z" unicode="Z" horiz-adv-x="1152" 
d="M320 -64v128h64v64h64v64h64v64h64v63h-256v65h320v-128h-64v-64h-64v-64h-64v-64h-64v-64h256v-64h-320zM64 -256v832h64v64h64v64h64v64h832v-832h-64v-64h-64v-64h-64v-64h-832zM832 -192v704h-704v-704h704zM960 -128v64h64v704h-64v-64h-64v-704h64v0zM896 576v64
h64v64h-704v-64h-64v-64h704v0z" />
    <glyph glyph-name="bracketleft" unicode="[" 
 />
    <glyph glyph-name="backslash" unicode="\" 
 />
    <glyph glyph-name="bracketright" unicode="]" 
 />
    <glyph glyph-name="asciicircum" unicode="^" 
 />
    <glyph glyph-name="underscore" unicode="_" 
 />
    <glyph glyph-name="grave" unicode="`" 
 />
    <glyph glyph-name="a" unicode="a" horiz-adv-x="448" 
d="M64 -64v384h64v64h192v-64h64v-384h-64v192h-192v-192h-64zM320 192v128h-192v-128h192z" />
    <glyph glyph-name="b" unicode="b" horiz-adv-x="448" 
d="M64 -64v448h256v-64h64v-128h-64v-64h64v-128h-64v-64h-256zM320 0v128h-192v-128h192zM320 192v128h-192v-128h192z" />
    <glyph glyph-name="c" unicode="c" horiz-adv-x="448" 
d="M128 -64v64h-64v320h64v64h192v-64h64v-64h-64v64h-192v-320h192v64h64v-64h-64v-64h-192z" />
    <glyph glyph-name="d" unicode="d" horiz-adv-x="448" 
d="M64 -64v448h256v-64h64v-320h-64v-64h-256zM320 0v320h-192v-320h192z" />
    <glyph glyph-name="e" unicode="e" horiz-adv-x="448" 
d="M64 -64v448h320v-64h-256v-128h256v-64h-256v-128h256v-64h-320z" />
    <glyph glyph-name="f" unicode="f" horiz-adv-x="448" 
d="M64 -64v448h320v-64h-256v-128h256v-64h-256v-192h-64z" />
    <glyph glyph-name="g" unicode="g" horiz-adv-x="448" 
d="M128 -64v64h-64v320h64v64h192v-64h64v-64h-64v64h-192v-320h192v128h-64v64h128v-192h-64v-64h-192z" />
    <glyph glyph-name="h" unicode="h" horiz-adv-x="448" 
d="M64 -64v448h64v-192h192v192h64v-448h-64v193l-192 -1v-192h-64z" />
    <glyph glyph-name="i" unicode="i" horiz-adv-x="448" 
d="M64 -64v64h128v320l-128 -1v65h320v-64h-128v-320h128v-64h-320z" />
    <glyph glyph-name="j" unicode="j" horiz-adv-x="448" 
d="M128 -64v64h-64v64h64v-64h128v320l-192 -1v65h320v-64h-64v-320h-64v-64h-128z" />
    <glyph glyph-name="k" unicode="k" horiz-adv-x="448" 
d="M64 -64v448h64v-192h64v64h64v64h64v64h64v-64h-64v-64h-64v-64h-64v-64h64v-64h64v-64h64v-64h-64v64h-64v64h-64v64h-64v-192h-64z" />
    <glyph glyph-name="l" unicode="l" horiz-adv-x="448" 
d="M64 -64v448h64v-384h256v-64h-320z" />
    <glyph glyph-name="m" unicode="m" horiz-adv-x="448" 
d="M64 -64v448h128v-64h64v64h128v-448h-64v384h-64v-384h-64v384h-64v-384h-64z" />
    <glyph glyph-name="n" unicode="n" horiz-adv-x="448" 
d="M64 -64v448h128v-64h64v-320h64v384h64v-448h-64h-64v64h-64v320h-64v-384h-64z" />
    <glyph glyph-name="o" unicode="o" horiz-adv-x="448" 
d="M128 -64v64h-64v320h64v64h192v-64h64v-320h-64v-64h-192zM320 320h-192v-320h192v320z" />
    <glyph glyph-name="p" unicode="p" horiz-adv-x="448" 
d="M64 -64v448h256v-64h64v-128h-64v-64h-192v-192h-64zM320 320h-192v-128h192v128z" />
    <glyph glyph-name="q" unicode="q" horiz-adv-x="448" 
d="M192 -128v64h-64v64h-64v320h64v64h192v-64h64v-320h-64v-64h-64v-64h-64zM192 0v64h64v-64h64v320h-192v-320h64z" />
    <glyph glyph-name="r" unicode="r" horiz-adv-x="448" 
d="M64 -64v448h256v-64h64v-128h-64v-64h64v-192h-64v192h-192v-192h-64zM320 192v128h-192v-128h192z" />
    <glyph glyph-name="s" unicode="s" horiz-adv-x="448" 
d="M128 -64v64h-64v64h64v-64h192v128h64v-128h-64v-64h-192zM64 192v128h64v64h192v-64h64v-64h-64v64h-192v-128h-64zM128 128v64h192v-64h-192z" />
    <glyph glyph-name="t" unicode="t" horiz-adv-x="448" 
d="M192 -64v384l-128 -1v65h320v-64h-128v-384h-64z" />
    <glyph glyph-name="u" unicode="u" horiz-adv-x="448" 
d="M128 -64v64h-64v384h64v-384h192v384h64v-384h-64v-64h-192z" />
    <glyph glyph-name="v" unicode="v" horiz-adv-x="448" 
d="M192 -64v128h-64v128h-64v192h64v-192h64v-128h64v128h64v192h64v-192h-64v-128h-64v-128h-64z" />
    <glyph glyph-name="w" unicode="w" horiz-adv-x="448" 
d="M64 -64v448h64v-384h64v384h64v-384h64v384h64v-448h-128v64h-64v-64h-128z" />
    <glyph glyph-name="x" unicode="x" horiz-adv-x="448" 
d="M64 -64v64h64v64h64v192h-64v64h-64v64h64v-64h64v-64h64v64h64v64h64v-64h-64v-64h-64v-192h64v-64h64v-64h-64v64h-64v64h-64v-64h-64v-64h-64z" />
    <glyph glyph-name="y" unicode="y" horiz-adv-x="448" 
d="M192 -64v192h-64v64h-64v192h64v-192h192v192h64v-192h-64v-64h-64v-192h-64z" />
    <glyph glyph-name="z" unicode="z" horiz-adv-x="448" 
d="M64 -64v128h64v64h64v64h64v64h64v63h-256v65h320v-128h-64v-64h-64v-64h-64v-64h-64v-64h256v-64h-320z" />
    <glyph glyph-name="braceleft" unicode="{" 
 />
    <glyph glyph-name="bar" unicode="|" 
 />
    <glyph glyph-name="braceright" unicode="}" 
 />
    <glyph glyph-name="asciitilde" unicode="~" 
 />
    <glyph glyph-name="uni00A0" unicode="&#xa0;" horiz-adv-x="256" 
 />
    <glyph glyph-name="exclamdown" unicode="&#xa1;" 
 />
    <glyph glyph-name="cent" unicode="&#xa2;" 
 />
    <glyph glyph-name="sterling" unicode="&#xa3;" 
 />
    <glyph glyph-name="currency" unicode="&#xa4;" 
 />
    <glyph glyph-name="yen" unicode="&#xa5;" 
 />
    <glyph glyph-name="brokenbar" unicode="&#xa6;" 
 />
    <glyph glyph-name="section" unicode="&#xa7;" 
 />
    <glyph glyph-name="dieresis" unicode="&#xa8;" 
 />
    <glyph glyph-name="copyright" unicode="&#xa9;" 
 />
    <glyph glyph-name="ordfeminine" unicode="&#xaa;" 
 />
    <glyph glyph-name="guillemotleft" unicode="&#xab;" 
 />
    <glyph glyph-name="logicalnot" unicode="&#xac;" 
 />
    <glyph glyph-name="uni00AD" unicode="&#xad;" 
 />
    <glyph glyph-name="registered" unicode="&#xae;" 
 />
    <glyph glyph-name="macron" unicode="&#xaf;" 
 />
    <glyph glyph-name="degree" unicode="&#xb0;" 
 />
    <glyph glyph-name="plusminus" unicode="&#xb1;" 
 />
    <glyph glyph-name="uni00B2" unicode="&#xb2;" 
 />
    <glyph glyph-name="uni00B3" unicode="&#xb3;" 
 />
    <glyph glyph-name="acute" unicode="&#xb4;" 
 />
    <glyph glyph-name="mu" unicode="&#xb5;" 
 />
    <glyph glyph-name="paragraph" unicode="&#xb6;" 
 />
    <glyph glyph-name="periodcentered" unicode="&#xb7;" 
 />
    <glyph glyph-name="cedilla" unicode="&#xb8;" 
 />
    <glyph glyph-name="uni00B9" unicode="&#xb9;" 
 />
    <glyph glyph-name="ordmasculine" unicode="&#xba;" 
 />
    <glyph glyph-name="guillemotright" unicode="&#xbb;" 
 />
    <glyph glyph-name="onequarter" unicode="&#xbc;" 
 />
    <glyph glyph-name="onehalf" unicode="&#xbd;" 
 />
    <glyph glyph-name="threequarters" unicode="&#xbe;" 
 />
    <glyph glyph-name="questiondown" unicode="&#xbf;" 
 />
    <glyph glyph-name="Agrave" unicode="&#xc0;" 
 />
    <glyph glyph-name="Aacute" unicode="&#xc1;" 
 />
    <glyph glyph-name="Acircumflex" unicode="&#xc2;" 
 />
    <glyph glyph-name="Atilde" unicode="&#xc3;" 
 />
    <glyph glyph-name="Adieresis" unicode="&#xc4;" 
 />
    <glyph glyph-name="Aring" unicode="&#xc5;" 
 />
    <glyph glyph-name="AE" unicode="&#xc6;" 
 />
    <glyph glyph-name="Ccedilla" unicode="&#xc7;" 
 />
    <glyph glyph-name="Egrave" unicode="&#xc8;" 
 />
    <glyph glyph-name="Eacute" unicode="&#xc9;" 
 />
    <glyph glyph-name="Ecircumflex" unicode="&#xca;" 
 />
    <glyph glyph-name="Edieresis" unicode="&#xcb;" 
 />
    <glyph glyph-name="Igrave" unicode="&#xcc;" 
 />
    <glyph glyph-name="Iacute" unicode="&#xcd;" 
 />
    <glyph glyph-name="Icircumflex" unicode="&#xce;" 
 />
    <glyph glyph-name="Idieresis" unicode="&#xcf;" 
 />
    <glyph glyph-name="Eth" unicode="&#xd0;" 
 />
    <glyph glyph-name="Ntilde" unicode="&#xd1;" 
 />
    <glyph glyph-name="Ograve" unicode="&#xd2;" 
 />
    <glyph glyph-name="Oacute" unicode="&#xd3;" 
 />
    <glyph glyph-name="Ocircumflex" unicode="&#xd4;" 
 />
    <glyph glyph-name="Otilde" unicode="&#xd5;" 
 />
    <glyph glyph-name="Odieresis" unicode="&#xd6;" 
 />
    <glyph glyph-name="multiply" unicode="&#xd7;" 
 />
    <glyph glyph-name="Oslash" unicode="&#xd8;" 
 />
    <glyph glyph-name="Ugrave" unicode="&#xd9;" 
 />
    <glyph glyph-name="Uacute" unicode="&#xda;" 
 />
    <glyph glyph-name="Ucircumflex" unicode="&#xdb;" 
 />
    <glyph glyph-name="Udieresis" unicode="&#xdc;" 
 />
    <glyph glyph-name="Yacute" unicode="&#xdd;" 
 />
    <glyph glyph-name="Thorn" unicode="&#xde;" 
 />
    <glyph glyph-name="germandbls" unicode="&#xdf;" 
 />
    <glyph glyph-name="agrave" unicode="&#xe0;" 
 />
    <glyph glyph-name="aacute" unicode="&#xe1;" 
 />
    <glyph glyph-name="acircumflex" unicode="&#xe2;" 
 />
    <glyph glyph-name="atilde" unicode="&#xe3;" 
 />
    <glyph glyph-name="adieresis" unicode="&#xe4;" 
 />
    <glyph glyph-name="aring" unicode="&#xe5;" 
 />
    <glyph glyph-name="ae" unicode="&#xe6;" 
 />
    <glyph glyph-name="ccedilla" unicode="&#xe7;" 
 />
    <glyph glyph-name="egrave" unicode="&#xe8;" 
 />
    <glyph glyph-name="eacute" unicode="&#xe9;" 
 />
    <glyph glyph-name="ecircumflex" unicode="&#xea;" 
 />
    <glyph glyph-name="edieresis" unicode="&#xeb;" 
 />
    <glyph glyph-name="igrave" unicode="&#xec;" 
 />
    <glyph glyph-name="iacute" unicode="&#xed;" 
 />
    <glyph glyph-name="icircumflex" unicode="&#xee;" 
 />
    <glyph glyph-name="idieresis" unicode="&#xef;" 
 />
    <glyph glyph-name="eth" unicode="&#xf0;" 
 />
    <glyph glyph-name="ntilde" unicode="&#xf1;" 
 />
    <glyph glyph-name="ograve" unicode="&#xf2;" 
 />
    <glyph glyph-name="oacute" unicode="&#xf3;" 
 />
    <glyph glyph-name="ocircumflex" unicode="&#xf4;" 
 />
    <glyph glyph-name="otilde" unicode="&#xf5;" 
 />
    <glyph glyph-name="odieresis" unicode="&#xf6;" 
 />
    <glyph glyph-name="divide" unicode="&#xf7;" 
 />
    <glyph glyph-name="oslash" unicode="&#xf8;" 
 />
    <glyph glyph-name="ugrave" unicode="&#xf9;" 
 />
    <glyph glyph-name="uacute" unicode="&#xfa;" 
 />
    <glyph glyph-name="ucircumflex" unicode="&#xfb;" 
 />
    <glyph glyph-name="udieresis" unicode="&#xfc;" 
 />
    <glyph glyph-name="yacute" unicode="&#xfd;" 
 />
    <glyph glyph-name="thorn" unicode="&#xfe;" 
 />
    <glyph glyph-name="ydieresis" unicode="&#xff;" 
 />
    <glyph glyph-name="OE" unicode="&#x152;" 
 />
    <glyph glyph-name="oe" unicode="&#x153;" 
 />
    <glyph glyph-name="Scaron" unicode="&#x160;" 
 />
    <glyph glyph-name="scaron" unicode="&#x161;" 
 />
    <glyph glyph-name="Ydieresis" unicode="&#x178;" 
 />
    <glyph glyph-name="Zcaron" unicode="&#x17d;" 
 />
    <glyph glyph-name="zcaron" unicode="&#x17e;" 
 />
    <glyph glyph-name="florin" unicode="&#x192;" 
 />
    <glyph glyph-name="circumflex" unicode="&#x2c6;" 
 />
    <glyph glyph-name="tilde" unicode="&#x2dc;" 
 />
    <glyph glyph-name="endash" unicode="&#x2013;" 
 />
    <glyph glyph-name="emdash" unicode="&#x2014;" 
 />
    <glyph glyph-name="quoteleft" unicode="&#x2018;" 
 />
    <glyph glyph-name="quoteright" unicode="&#x2019;" 
 />
    <glyph glyph-name="quotesinglbase" unicode="&#x201a;" 
 />
    <glyph glyph-name="quotedblleft" unicode="&#x201c;" 
 />
    <glyph glyph-name="quotedblright" unicode="&#x201d;" 
 />
    <glyph glyph-name="quotedblbase" unicode="&#x201e;" 
 />
    <glyph glyph-name="dagger" unicode="&#x2020;" 
 />
    <glyph glyph-name="daggerdbl" unicode="&#x2021;" 
 />
    <glyph glyph-name="bullet" unicode="&#x2022;" 
 />
    <glyph glyph-name="ellipsis" unicode="&#x2026;" 
 />
    <glyph glyph-name="perthousand" unicode="&#x2030;" 
 />
    <glyph glyph-name="guilsinglleft" unicode="&#x2039;" 
 />
    <glyph glyph-name="guilsinglright" unicode="&#x203a;" 
 />
    <glyph glyph-name="Euro" unicode="&#x20ac;" 
 />
    <glyph glyph-name="trademark" unicode="&#x2122;" 
 />
    <glyph glyph-name="uni2219" unicode="&#x2219;" 
 />
  </font>
</defs>
</svg>
